<svg xmlns="http://www.w3.org/2000/svg" viewBox="0 0 1024 1024">
  <!-- QR Code Corner Markers (Green) -->
  <rect x="69" y="69" width="238" height="238" fill="#00a86b" rx="8"/>
  <rect x="104" y="104" width="168" height="168" fill="white"/>
  <rect x="137" y="137" width="102" height="102" fill="#00a86b" rx="8"/>
  
  <rect x="717" y="69" width="238" height="238" fill="#00a86b" rx="8"/>
  <rect x="752" y="104" width="168" height="168" fill="white"/>
  <rect x="785" y="137" width="102" height="102" fill="#00a86b" rx="8"/>
  
  <rect x="69" y="717" width="238" height="238" fill="#00a86b" rx="8"/>
  <rect x="104" y="752" width="168" height="168" fill="white"/>
  <rect x="137" y="785" width="102" height="102" fill="#00a86b" rx="8"/>
  
  <!-- QR Code Pattern Elements (Cyan/Blue) -->
  <rect x="69" y="375" width="62" height="62" fill="#00b4d8" rx="4"/>
  <rect x="122" y="340" width="62" height="30" fill="#00b4d8" rx="4"/>
  <rect x="210" y="340" width="62" height="62" fill="#00b4d8" rx="4"/>
  <rect x="341" y="69" width="62" height="30" fill="#00b4d8" rx="4"/>
  <rect x="407" y="69" width="30" height="92" fill="#00b4d8" rx="4"/>
  <rect x="341" y="128" width="92" height="62" fill="#00b4d8" rx="4"/>
  <rect x="469" y="161" width="62" height="62" fill="#00b4d8" rx="4"/>
  <rect x="529" y="69" width="62" height="62" fill="#00b4d8" rx="4"/>
  <rect x="591" y="69" width="62" height="30" fill="#00b4d8" rx="4"/>
  <rect x="653" y="69" width="30" height="92" fill="#00b4d8" rx="4"/>
  <rect x="210" y="375" width="122" height="62" fill="#00b4d8" rx="4"/>
  <rect x="341" y="223" width="92" height="62" fill="#00b4d8" rx="4"/>
  <rect x="469" y="285" width="62" height="62" fill="#00b4d8" rx="4"/>
  <rect x="591" y="223" width="62" height="30" fill="#00b4d8" rx="4"/>
  <rect x="716" y="340" width="62" height="62" fill="#00b4d8" rx="4"/>
  <rect x="778" y="375" width="62" height="92" fill="#00b4d8" rx="4"/>
  <rect x="840" y="340" width="62" height="30" fill="#00b4d8" rx="4"/>
  <rect x="902" y="375" width="62" height="92" fill="#00b4d8" rx="4"/>
  <rect x="69" y="591" width="92" height="62" fill="#00b4d8" rx="4"/>
  <rect x="341" y="591" width="30" height="92" fill="#00b4d8" rx="4"/>
  <rect x="407" y="653" width="92" height="62" fill="#00b4d8" rx="4"/>
  <rect x="529" y="591" width="62" height="30" fill="#00b4d8" rx="4"/>
  <rect x="716" y="591" width="62" height="92" fill="#00b4d8" rx="4"/>
  <rect x="778" y="653" width="92" height="62" fill="#00b4d8" rx="4"/>
  <rect x="902" y="591" width="62" height="30" fill="#00b4d8" rx="4"/>
  <rect x="341" y="840" width="62" height="92" fill="#00b4d8" rx="4"/>
  <rect x="469" y="871" width="30" height="92" fill="#00b4d8" rx="4"/>
  <rect x="529" y="840" width="92" height="30" fill="#00b4d8" rx="4"/>
  <rect x="653" y="871" width="62" height="92" fill="#00b4d8" rx="4"/>
  <rect x="716" y="747" width="30" height="62" fill="#00b4d8" rx="4"/>
  <rect x="778" y="809" width="62" height="92" fill="#00b4d8" rx="4"/>
  <rect x="902" y="871" width="62" height="30" fill="#00b4d8" rx="4"/>
  
  <!-- Text: "Signature" (Cyan) -->
  <text x="143" y="490" font-family="Arial, sans-serif" font-size="72" font-weight="bold" fill="#00b4d8">Signature</text>
  
  <!-- Text: "Credentials" (Green) -->
  <text x="340" y="590" font-family="Arial, sans-serif" font-size="72" font-weight="bold" fill="#00a86b">Credentials</text>
</svg>